<svg width="124" height="106" viewBox="0 0 124 106" fill="none" xmlns="http://www.w3.org/2000/svg">
<path d="M66.8408 100.432L61.7197 105.862H61.5068L56.1729 100.206V14.7305H66.8408V100.432ZM83.1494 83.1387L72.4814 94.4502V14.7305H83.1494V83.1387ZM50.5332 94.2256L39.8652 82.9141V14.7305H50.5332V94.2256ZM94.123 15.3027C94.123 19.8858 96.1971 23.9842 99.457 26.7119V65.8477L88.7891 77.1592V14.7305H94.123V15.3027ZM34.2256 76.9346L23.5576 65.623V26.8633C27.0551 24.143 29.3066 19.8951 29.3066 15.1211V14.7305H34.2256V76.9346ZM110.028 0C117.202 0 123.017 5.81571 123.018 12.9893C123.018 20.163 117.202 25.9785 110.028 25.9785C102.855 25.9785 97.0391 20.163 97.0391 12.9893C97.0391 12.071 97.1352 11.1749 97.3164 10.3105H25.7012C25.8824 11.175 25.9795 12.071 25.9795 12.9893C25.9795 20.1629 20.1638 25.9783 12.9902 25.9785C5.81647 25.9785 0 20.163 0 12.9893C0.000263901 5.81571 5.81663 0 12.9902 0H110.028Z" fill="#E35436"/>
</svg>
