<svg width="50" height="56" viewBox="0 0 50 56" fill="none" xmlns="http://www.w3.org/2000/svg">
<path d="M5.51659 55.1659C3.99953 55.1659 2.70083 54.6257 1.6205 53.5454C0.540166 52.465 0 51.1663 0 49.6493V11.0332C0 9.51611 0.540166 8.21742 1.6205 7.13708C2.70083 6.05675 3.99953 5.51659 5.51659 5.51659H8.27488V0H13.7915V5.51659H35.8578V0H41.3744V5.51659H44.1327C45.6498 5.51659 46.9485 6.05675 48.0288 7.13708C49.1091 8.21742 49.6493 9.51611 49.6493 11.0332V49.6493C49.6493 51.1663 49.1091 52.465 48.0288 53.5454C46.9485 54.6257 45.6498 55.1659 44.1327 55.1659H5.51659ZM5.51659 49.6493H44.1327V22.0663H5.51659V49.6493ZM5.51659 16.5498H44.1327V11.0332H5.51659V16.5498ZM24.8246 33.0995C24.0431 33.0995 23.388 32.8352 22.8594 32.3065C22.3307 31.7778 22.0663 31.1227 22.0663 30.3412C22.0663 29.5597 22.3307 28.9046 22.8594 28.3759C23.388 27.8473 24.0431 27.5829 24.8246 27.5829C25.6062 27.5829 26.2613 27.8473 26.7899 28.3759C27.3186 28.9046 27.5829 29.5597 27.5829 30.3412C27.5829 31.1227 27.3186 31.7778 26.7899 32.3065C26.2613 32.8352 25.6062 33.0995 24.8246 33.0995ZM13.7915 33.0995C13.01 33.0995 12.3549 32.8352 11.8262 32.3065C11.2975 31.7778 11.0332 31.1227 11.0332 30.3412C11.0332 29.5597 11.2975 28.9046 11.8262 28.3759C12.3549 27.8473 13.01 27.5829 13.7915 27.5829C14.573 27.5829 15.2281 27.8473 15.7568 28.3759C16.2854 28.9046 16.5498 29.5597 16.5498 30.3412C16.5498 31.1227 16.2854 31.7778 15.7568 32.3065C15.2281 32.8352 14.573 33.0995 13.7915 33.0995ZM35.8578 33.0995C35.0763 33.0995 34.4212 32.8352 33.8925 32.3065C33.3639 31.7778 33.0995 31.1227 33.0995 30.3412C33.0995 29.5597 33.3639 28.9046 33.8925 28.3759C34.4212 27.8473 35.0763 27.5829 35.8578 27.5829C36.6393 27.5829 37.2944 27.8473 37.8231 28.3759C38.3518 28.9046 38.6161 29.5597 38.6161 30.3412C38.6161 31.1227 38.3518 31.7778 37.8231 32.3065C37.2944 32.8352 36.6393 33.0995 35.8578 33.0995ZM24.8246 44.1327C24.0431 44.1327 23.388 43.8684 22.8594 43.3397C22.3307 42.811 22.0663 42.1559 22.0663 41.3744C22.0663 40.5929 22.3307 39.9378 22.8594 39.4091C23.388 38.8804 24.0431 38.6161 24.8246 38.6161C25.6062 38.6161 26.2613 38.8804 26.7899 39.4091C27.3186 39.9378 27.5829 40.5929 27.5829 41.3744C27.5829 42.1559 27.3186 42.811 26.7899 43.3397C26.2613 43.8684 25.6062 44.1327 24.8246 44.1327ZM13.7915 44.1327C13.01 44.1327 12.3549 43.8684 11.8262 43.3397C11.2975 42.811 11.0332 42.1559 11.0332 41.3744C11.0332 40.5929 11.2975 39.9378 11.8262 39.4091C12.3549 38.8804 13.01 38.6161 13.7915 38.6161C14.573 38.6161 15.2281 38.8804 15.7568 39.4091C16.2854 39.9378 16.5498 40.5929 16.5498 41.3744C16.5498 42.1559 16.2854 42.811 15.7568 43.3397C15.2281 43.8684 14.573 44.1327 13.7915 44.1327ZM35.8578 44.1327C35.0763 44.1327 34.4212 43.8684 33.8925 43.3397C33.3639 42.811 33.0995 42.1559 33.0995 41.3744C33.0995 40.5929 33.3639 39.9378 33.8925 39.4091C34.4212 38.8804 35.0763 38.6161 35.8578 38.6161C36.6393 38.6161 37.2944 38.8804 37.8231 39.4091C38.3518 39.9378 38.6161 40.5929 38.6161 41.3744C38.6161 42.1559 38.3518 42.811 37.8231 43.3397C37.2944 43.8684 36.6393 44.1327 35.8578 44.1327Z" fill="white"/>
</svg>
