<svg width="97" height="78" viewBox="0 0 97 78" fill="none" xmlns="http://www.w3.org/2000/svg">
<path d="M78.7944 42.8808H22.9721V34.3046H78.7944L71.673 27.6581L78.1052 21.4404L96.4829 38.5927L78.1052 55.745L71.673 49.5273L78.7944 42.8808ZM55.1331 25.7285V8.57615H9.18885V68.6092H55.1331V51.4569H64.3219V68.6092C64.3219 70.9676 63.4222 72.9866 61.6227 74.6661C59.8232 76.3456 57.66 77.1854 55.1331 77.1854H9.18885C6.66192 77.1854 4.49871 76.3456 2.69922 74.6661C0.899742 72.9866 0 70.9676 0 68.6092V8.57615C0 6.21771 0.899742 4.19874 2.69922 2.51924C4.49871 0.839748 6.66192 0 9.18885 0H55.1331C57.66 0 59.8232 0.839748 61.6227 2.51924C63.4222 4.19874 64.3219 6.21771 64.3219 8.57615V25.7285H55.1331Z" fill="#E35436"/>
</svg>
